<!DOCTYPE svg PUBLIC "-//W3C//DTD SVG 1.1//EN" "https://www.w3.org/Graphics/SVG/1.1/DTD/svg11.dtd">
<svg xmlns="http://www.w3.org/2000/svg" class="sc-ihNHHr hHJnMF graph" data-testid="graph" role="img" aria-labelledby="polymath-graph-title" width="774" height="1412">
<title id="polymath-graph-title">Workflow Studio State Machine Graph</title>
<g transform="translate(12,12)" class="new-look-graph">
<g class="nodes">
<g class="node-container" transform="translate(368.75,22)">
<g>
<circle class="sc-kjEcyX bjtluQ shape" r="22"/>
<text class="sc-elYLMi hKSxMr label">
<tspan xml:space="preserve" text-anchor="middle" alignment-baseline="central">Start</tspan>
</text>
</g>
</g>
<g class="node-container" transform="translate(368.75,103.5)">
<g class="sc-caXVBt jhpNPD node state Task" data-testid="graph-Retrieve the latest prod RDS Cluster snapshot" data-state-id="Retrieve the latest prod RDS Cluster snapshot" data-state-type="Task">
<g class="new-look-state-node ">
<rect x="-185" y="-24.5" width="370" height="49" rx="3" ry="3"/>
<g class="handle" transform="translate(-185,-24.5)">
<path d="M5,16 L5,34 M8,16 L8,34"/>
</g>
<g class="icon" transform="translate(-169,-24)">
<rect fill="var(--color-background-container-header-gnwbip, #fafafa)" x="0.0361026108" y="0.0181291967" width="48" height="48"/>
<line x1="47.5" y1="0.49122807" x2="47.5" y2="47.5" stroke="var(--color-text-home-header-secondary-bkwtrh, #d5dbdb)" stroke-linecap="square"/>
<line x1="0.5" y1="0.49122807" x2="0.5" y2="47.5" stroke="var(--color-text-home-header-secondary-bkwtrh, #d5dbdb)" stroke-linecap="square"/>
<use href="#icon-service-rds">
<title>RDS</title>
</use>
</g>
<g class="text-lines" transform="translate(-113,-24.5)">
<text transform="translate(0,17)" class="line1">
<tspan xml:space="preserve" text-anchor="start">RDS: DescribeDBClusterSnapshots</tspan>
</text>
<text transform="translate(0,35.5)" class="line2 label">
<tspan xml:space="preserve" text-anchor="start">Retrieve the latest prod RDS Cluster snapshot</tspan>
</text>
</g>
</g>
</g>
</g>
<g class="node-container" transform="translate(368.75,187.5)">
<g class="sc-caXVBt jhpNPD node state Task" data-testid="graph-Restore the prod RDS Cluster snapshot into the staging RDS cluster" data-state-id="Restore the prod RDS Cluster snapshot into the staging RDS cluster" data-state-type="Task">
<g class="new-look-state-node ">
<rect x="-258" y="-24.5" width="516" height="49" rx="3" ry="3"/>
<g class="handle" transform="translate(-258,-24.5)">
<path d="M5,16 L5,34 M8,16 L8,34"/>
</g>
<g class="icon" transform="translate(-242,-24)">
<rect fill="var(--color-background-container-header-gnwbip, #fafafa)" x="0.0361026108" y="0.0181291967" width="48" height="48"/>
<line x1="47.5" y1="0.49122807" x2="47.5" y2="47.5" stroke="var(--color-text-home-header-secondary-bkwtrh, #d5dbdb)" stroke-linecap="square"/>
<line x1="0.5" y1="0.49122807" x2="0.5" y2="47.5" stroke="var(--color-text-home-header-secondary-bkwtrh, #d5dbdb)" stroke-linecap="square"/>
<use href="#icon-service-rds">
<title>RDS</title>
</use>
</g>
<g class="text-lines" transform="translate(-186,-24.5)">
<text transform="translate(0,17)" class="line1">
<tspan xml:space="preserve" text-anchor="start">RDS: RestoreDBClusterFromSnapshot</tspan>
</text>
<text transform="translate(0,35.5)" class="line2 label">
<tspan xml:space="preserve" text-anchor="start">Restore the prod RDS Cluster snapshot into the staging RDS cluster</tspan>
</text>
</g>
</g>
</g>
</g>
<g class="node-container" transform="translate(368.75,271.5)">
<g class="sc-caXVBt jhpNPD node state Wait" data-testid="graph-Wait 30 min until a staging RDS Cluster reaches the state closer to Available" data-state-id="Wait 30 min until a staging RDS Cluster reaches the state closer to Available" data-state-type="Wait">
<g class="new-look-state-node ">
<rect x="-281.5" y="-24.5" width="563" height="49" rx="3" ry="3"/>
<g class="handle" transform="translate(-281.5,-24.5)">
<path d="M5,16 L5,34 M8,16 L8,34"/>
</g>
<g class="icon" transform="translate(-265.5,-24)">
<rect fill="var(--color-background-container-header-gnwbip, #fafafa)" x="0.0361026108" y="0.0181291967" width="48" height="48"/>
<line x1="47.5" y1="0.49122807" x2="47.5" y2="47.5" stroke="var(--color-text-home-header-secondary-bkwtrh, #d5dbdb)" stroke-linecap="square"/>
<line x1="0.5" y1="0.49122807" x2="0.5" y2="47.5" stroke="var(--color-text-home-header-secondary-bkwtrh, #d5dbdb)" stroke-linecap="square"/>
<use href="#icon-flow-wait"/>
</g>
<g class="text-lines" transform="translate(-209.5,-24.5)">
<text transform="translate(0,17)" class="line1">
<tspan xml:space="preserve" text-anchor="start">Wait state</tspan>
</text>
<text transform="translate(0,35.5)" class="line2 label">
<tspan xml:space="preserve" text-anchor="start">Wait 30 min until a staging RDS Cluster reaches the state closer to Available</tspan>
</text>
</g>
</g>
</g>
</g>
<g class="node-container" transform="translate(368.75,355.5)">
<g class="sc-caXVBt jhpNPD node state Task" data-testid="graph-Wait until a staging RDS Cluster is Available" data-state-id="Wait until a staging RDS Cluster is Available" data-state-type="Task">
<g class="new-look-state-node ">
<rect x="-179" y="-24.5" width="358" height="49" rx="3" ry="3"/>
<g class="handle" transform="translate(-179,-24.5)">
<path d="M5,16 L5,34 M8,16 L8,34"/>
</g>
<g class="icon" transform="translate(-163,-24)">
<rect fill="var(--color-background-container-header-gnwbip, #fafafa)" x="0.0361026108" y="0.0181291967" width="48" height="48"/>
<line x1="47.5" y1="0.49122807" x2="47.5" y2="47.5" stroke="var(--color-text-home-header-secondary-bkwtrh, #d5dbdb)" stroke-linecap="square"/>
<line x1="0.5" y1="0.49122807" x2="0.5" y2="47.5" stroke="var(--color-text-home-header-secondary-bkwtrh, #d5dbdb)" stroke-linecap="square"/>
<use href="#icon-service-lam">
<title>Lambda</title>
</use>
</g>
<g class="text-lines" transform="translate(-107,-24.5)">
<text transform="translate(0,17)" class="line1">
<tspan xml:space="preserve" text-anchor="start">Lambda: Invoke</tspan>
</text>
<text transform="translate(0,35.5)" class="line2 label">
<tspan xml:space="preserve" text-anchor="start">Wait until a staging RDS Cluster is Available</tspan>
</text>
</g>
</g>
</g>
</g>
<g class="node-container" transform="translate(368.75,439.5)">
<g class="sc-caXVBt jhpNPD node state Task" data-testid="graph-Create a staging RDS Instance" data-state-id="Create a staging RDS Instance" data-state-type="Task">
<g class="new-look-state-node ">
<rect x="-135.5" y="-24.5" width="271" height="49" rx="3" ry="3"/>
<g class="handle" transform="translate(-135.5,-24.5)">
<path d="M5,16 L5,34 M8,16 L8,34"/>
</g>
<g class="icon" transform="translate(-119.5,-24)">
<rect fill="var(--color-background-container-header-gnwbip, #fafafa)" x="0.0361026108" y="0.0181291967" width="48" height="48"/>
<line x1="47.5" y1="0.49122807" x2="47.5" y2="47.5" stroke="var(--color-text-home-header-secondary-bkwtrh, #d5dbdb)" stroke-linecap="square"/>
<line x1="0.5" y1="0.49122807" x2="0.5" y2="47.5" stroke="var(--color-text-home-header-secondary-bkwtrh, #d5dbdb)" stroke-linecap="square"/>
<use href="#icon-service-rds">
<title>RDS</title>
</use>
</g>
<g class="text-lines" transform="translate(-63.5,-24.5)">
<text transform="translate(0,17)" class="line1">
<tspan xml:space="preserve" text-anchor="start">RDS: CreateDBInstance</tspan>
</text>
<text transform="translate(0,35.5)" class="line2 label">
<tspan xml:space="preserve" text-anchor="start">Create a staging RDS Instance</tspan>
</text>
</g>
</g>
</g>
</g>
<g class="node-container" transform="translate(368.75,523.5)">
<g class="sc-caXVBt jhpNPD node state Wait" data-testid="graph-Wait 9 min until a staging RDS Instance reaches the state closer to Available" data-state-id="Wait 9 min until a staging RDS Instance reaches the state closer to Available" data-state-type="Wait">
<g class="new-look-state-node ">
<rect x="-281.5" y="-24.5" width="563" height="49" rx="3" ry="3"/>
<g class="handle" transform="translate(-281.5,-24.5)">
<path d="M5,16 L5,34 M8,16 L8,34"/>
</g>
<g class="icon" transform="translate(-265.5,-24)">
<rect fill="var(--color-background-container-header-gnwbip, #fafafa)" x="0.0361026108" y="0.0181291967" width="48" height="48"/>
<line x1="47.5" y1="0.49122807" x2="47.5" y2="47.5" stroke="var(--color-text-home-header-secondary-bkwtrh, #d5dbdb)" stroke-linecap="square"/>
<line x1="0.5" y1="0.49122807" x2="0.5" y2="47.5" stroke="var(--color-text-home-header-secondary-bkwtrh, #d5dbdb)" stroke-linecap="square"/>
<use href="#icon-flow-wait"/>
</g>
<g class="text-lines" transform="translate(-209.5,-24.5)">
<text transform="translate(0,17)" class="line1">
<tspan xml:space="preserve" text-anchor="start">Wait state</tspan>
</text>
<text transform="translate(0,35.5)" class="line2 label">
<tspan xml:space="preserve" text-anchor="start">Wait 9 min until a staging RDS Instance reaches the state closer to Available</tspan>
</text>
</g>
</g>
</g>
</g>
<g class="node-container" transform="translate(368.75,607.5)">
<g class="sc-caXVBt jhpNPD node state Task" data-testid="graph-Wait until a staging RDS Instance is Available" data-state-id="Wait until a staging RDS Instance is Available" data-state-type="Task">
<g class="new-look-state-node ">
<rect x="-183" y="-24.5" width="366" height="49" rx="3" ry="3"/>
<g class="handle" transform="translate(-183,-24.5)">
<path d="M5,16 L5,34 M8,16 L8,34"/>
</g>
<g class="icon" transform="translate(-167,-24)">
<rect fill="var(--color-background-container-header-gnwbip, #fafafa)" x="0.0361026108" y="0.0181291967" width="48" height="48"/>
<line x1="47.5" y1="0.49122807" x2="47.5" y2="47.5" stroke="var(--color-text-home-header-secondary-bkwtrh, #d5dbdb)" stroke-linecap="square"/>
<line x1="0.5" y1="0.49122807" x2="0.5" y2="47.5" stroke="var(--color-text-home-header-secondary-bkwtrh, #d5dbdb)" stroke-linecap="square"/>
<use href="#icon-service-lam">
<title>Lambda</title>
</use>
</g>
<g class="text-lines" transform="translate(-111,-24.5)">
<text transform="translate(0,17)" class="line1">
<tspan xml:space="preserve" text-anchor="start">Lambda: Invoke</tspan>
</text>
<text transform="translate(0,35.5)" class="line2 label">
<tspan xml:space="preserve" text-anchor="start">Wait until a staging RDS Instance is Available</tspan>
</text>
</g>
</g>
</g>
</g>
<g class="node-container" transform="translate(368.75,691.5)">
<g class="sc-caXVBt jhpNPD node state Task" data-testid="graph-Update and deploy the staging application environment" data-state-id="Update and deploy the staging application environment" data-state-type="Task">
<g class="new-look-state-node ">
<rect x="-205.5" y="-24.5" width="411" height="49" rx="3" ry="3"/>
<g class="handle" transform="translate(-205.5,-24.5)">
<path d="M5,16 L5,34 M8,16 L8,34"/>
</g>
<g class="icon" transform="translate(-189.5,-24)">
<rect fill="var(--color-background-container-header-gnwbip, #fafafa)" x="0.0361026108" y="0.0181291967" width="48" height="48"/>
<line x1="47.5" y1="0.49122807" x2="47.5" y2="47.5" stroke="var(--color-text-home-header-secondary-bkwtrh, #d5dbdb)" stroke-linecap="square"/>
<line x1="0.5" y1="0.49122807" x2="0.5" y2="47.5" stroke="var(--color-text-home-header-secondary-bkwtrh, #d5dbdb)" stroke-linecap="square"/>
<use href="#icon-service-lam">
<title>Lambda</title>
</use>
</g>
<g class="text-lines" transform="translate(-133.5,-24.5)">
<text transform="translate(0,17)" class="line1">
<tspan xml:space="preserve" text-anchor="start">Lambda: Invoke</tspan>
</text>
<text transform="translate(0,35.5)" class="line2 label">
<tspan xml:space="preserve" text-anchor="start">Update and deploy the staging application environment</tspan>
</text>
</g>
</g>
</g>
</g>
<g class="node-container" transform="translate(368.75,775.5)">
<g class="sc-caXVBt jhpNPD node state Task" data-testid="graph-List old staging RDS resources to delete" data-state-id="List old staging RDS resources to delete" data-state-type="Task">
<g class="new-look-state-node ">
<rect x="-166" y="-24.5" width="332" height="49" rx="3" ry="3"/>
<g class="handle" transform="translate(-166,-24.5)">
<path d="M5,16 L5,34 M8,16 L8,34"/>
</g>
<g class="icon" transform="translate(-150,-24)">
<rect fill="var(--color-background-container-header-gnwbip, #fafafa)" x="0.0361026108" y="0.0181291967" width="48" height="48"/>
<line x1="47.5" y1="0.49122807" x2="47.5" y2="47.5" stroke="var(--color-text-home-header-secondary-bkwtrh, #d5dbdb)" stroke-linecap="square"/>
<line x1="0.5" y1="0.49122807" x2="0.5" y2="47.5" stroke="var(--color-text-home-header-secondary-bkwtrh, #d5dbdb)" stroke-linecap="square"/>
<use href="#icon-service-lam">
<title>Lambda</title>
</use>
</g>
<g class="text-lines" transform="translate(-94,-24.5)">
<text transform="translate(0,17)" class="line1">
<tspan xml:space="preserve" text-anchor="start">Lambda: Invoke</tspan>
</text>
<text transform="translate(0,35.5)" class="line2 label">
<tspan xml:space="preserve" text-anchor="start">List old staging RDS resources to delete</tspan>
</text>
</g>
</g>
</g>
</g>
<g class="node-container" transform="translate(368.75,859.5)">
<g class="sc-caXVBt jhpNPD node state Choice" data-testid="graph-Check if the old staging RDS Cluster exists" data-state-id="Check if the old staging RDS Cluster exists" data-state-type="Choice">
<g class="new-look-state-node ">
<rect x="-174" y="-24.5" width="348" height="49" rx="3" ry="3"/>
<g class="handle" transform="translate(-174,-24.5)">
<path d="M5,16 L5,34 M8,16 L8,34"/>
</g>
<g class="icon" transform="translate(-158,-24)">
<rect fill="var(--color-background-container-header-gnwbip, #fafafa)" x="0.0361026108" y="0.0181291967" width="48" height="48"/>
<line x1="47.5" y1="0.49122807" x2="47.5" y2="47.5" stroke="var(--color-text-home-header-secondary-bkwtrh, #d5dbdb)" stroke-linecap="square"/>
<line x1="0.5" y1="0.49122807" x2="0.5" y2="47.5" stroke="var(--color-text-home-header-secondary-bkwtrh, #d5dbdb)" stroke-linecap="square"/>
<use href="#icon-flow-choice"/>
</g>
<g class="text-lines" transform="translate(-102,-24.5)">
<text transform="translate(0,17)" class="line1">
<tspan xml:space="preserve" text-anchor="start">Choice state</tspan>
</text>
<text transform="translate(0,35.5)" class="line2 label">
<tspan xml:space="preserve" text-anchor="start">Check if the old staging RDS Cluster exists</tspan>
</text>
</g>
</g>
</g>
</g>
<g class="node-container" transform="translate(555,1080)">
<g class="sc-caXVBt jhpNPD node state container Map" data-state-id="Parallel deletion of old staging RDS Instances" data-state-type="Map">
<g class="new-look-state-node ">
<g class="bounding-box" transform="translate(0,5)">
<g class="shape new-look-state-node-sub">
<rect rx="3" ry="3" x="-194.5" y="-144.5" width="389" height="284" class="sc-iJkHyd gSmyvZ"/>
<rect x="-169.5" y="-100.5" width="339" height="26" class="sc-iJkHyd sc-grVGCS gSmyvZ bWQpvc"/>
<svg x="-154.5" y="-104" width="25" height="25" viewBox="0 -8 25 25" xmlns="http://www.w3.org/2000/svg">
<g id="Symbols" stroke="none" stroke-width="1" fill="none" fill-rule="evenodd" opacity="0.867687044">
<g id="ONE-MAP---graph---inline-map" transform="translate(-55.000000, -217.000000)" fill="#687078" fill-rule="nonzero">
<g id="Group-15" transform="translate(36.000000, 213.000000)">
<g id="script" transform="translate(19.000000, 4.000000)">
<path d="M11.60121,15.4462891 C12.5601274,15.4462891 13.2010167,15.2896753 13.5238779,14.9764478 C13.8467393,14.6632203 14.0081699,14.0388817 14.0081699,13.1034319 L14.0081699,12.7383526 C14.0081699,12.1034319 14.1135348,10.6632203 14.3242646,10.4177176 C14.5349944,10.172215 14.9129549,10.0494637 15.4581458,10.0494637 L15.8177397,10.0494637 L15.8177397,6.83676525 L15.4581458,6.83676525 C14.9129549,6.83676525 14.5349944,6.71507213 14.3242646,6.47168589 C14.1135348,6.22829964 14.0081699,4.7870298 14.0081699,4.14787636 L14.0081699,3.782797 C14.0081699,2.84734726 13.8467393,2.22406684 13.5238779,1.91295573 C13.2010167,1.60184462 12.5601274,1.44628906 11.60121,1.44628906 L9.8177397,1.44628906 L9.8177397,3.65263827 L10.519528,3.65263827 C10.9255213,3.65263827 11.1971501,3.74364356 11.3344144,3.92565414 C11.4716788,4.10766472 11.540311,5.49708271 11.540311,6.09390811 L11.540311,6.42089224 C11.540311,7.11930494 11.6340761,7.61031023 11.8216063,7.89390811 C12.0091365,8.17750599 12.3464975,8.35951658 12.8336895,8.43993986 C12.3503642,8.52882875 12.0139698,8.71718853 11.8245063,9.00501922 C11.6350428,9.29284991 11.540311,9.7838552 11.540311,10.4780351 L11.540311,10.7796224 C11.540311,11.3849134 11.4707122,12.7785642 11.3315144,12.9605748 C11.1923168,13.1425854 10.9216547,13.2335906 10.519528,13.2335906 L9.8177397,13.2335906 L9.8177397,15.4462891 L11.60121,15.4462891 Z" id="}"/>
<path d="M3.03295652,15.4462891 C3.99187387,15.4462891 4.63276319,15.2896753 4.95562448,14.9764478 C5.27848577,14.6632203 5.43991641,14.0388817 5.43991641,13.1034319 L5.43991641,12.7383526 C5.43991641,12.1034319 5.54528132,10.6632203 5.75601114,10.4177176 C5.96674096,10.172215 6.34470133,10.0494637 6.88989225,10.0494637 L7.24948625,10.0494637 L7.24948625,6.83676525 L6.88989225,6.83676525 C6.34470133,6.83676525 5.96674096,6.71507213 5.75601114,6.47168589 C5.54528132,6.22829964 5.43991641,4.7870298 5.43991641,4.14787636 L5.43991641,3.782797 C5.43991641,2.84734726 5.27848577,2.22406684 4.95562448,1.91295573 C4.63276319,1.60184462 3.99187387,1.44628906 3.03295652,1.44628906 L1.24948625,1.44628906 L1.24948625,3.65263827 L1.95127455,3.65263827 C2.35726778,3.65263827 2.62889659,3.74364356 2.76616097,3.92565414 C2.90342535,4.10766472 2.97205754,4.49708271 2.97205754,5.09390811 L2.97205754,5.42089224 C2.97205754,6.11930494 3.06582265,7.61031023 3.25335285,7.89390811 C3.44088306,8.17750599 3.7782441,8.35951658 4.26543598,8.43993986 C3.7821107,8.52882875 3.44571631,8.71718853 3.25625281,9.00501922 C3.0667893,9.29284991 2.97205754,9.7838552 2.97205754,10.4780351 L2.97205754,10.7796224 C2.97205754,11.3849134 2.9024587,12.7785642 2.76326102,12.9605748 C2.62406334,13.1425854 2.35340119,13.2335906 1.95127455,13.2335906 L1.24948625,13.2335906 L1.24948625,15.4462891 L3.03295652,15.4462891 Z" id="}-copy" transform="translate(4.249486, 8.446289) scale(-1, 1) translate(-4.249486, -8.446289) "/>
</g>
</g>
</g>
</g>
<style data-styled="true" data-styled-version="5.3.5">.jhpNPD{cursor:pointer;}/*!sc*/
data-styled.g119[id="sc-caXVBt"]{content:"jhpNPD,"}/*!sc*/
.joWlhX{stroke:#555;background-color:#555;stroke-width:1px;}/*!sc*/
data-styled.g120[id="sc-hjriPb"]{content:"joWlhX,"}/*!sc*/
.eEdiSR{stroke-width:0;stroke:none;fill:#f2f3f3;}/*!sc*/
data-styled.g121[id="sc-gUAEMC"]{content:"eEdiSR,"}/*!sc*/
.kAiHmX{font-size:10px;line-height:12.5;stroke:none;}/*!sc*/
data-styled.g122[id="sc-fWjsSh"]{content:"kAiHmX,"}/*!sc*/
.bhYJdp{fill:var(--color-text-form-secondary-icb4vu,#687078);}/*!sc*/
data-styled.g133[id="sc-jtcaXd"]{content:"bhYJdp,"}/*!sc*/
.hKSxMr{font-weight:400;font-size:12px;line-height:16px;font-family:Amazon Ember,Arial,Roboto,Arial,sans-serif;text-shadow:none;fill:var(--color-text-body-default-4colr5,#16191f);}/*!sc*/
data-styled.g134[id="sc-elYLMi"]{content:"hKSxMr,"}/*!sc*/
.bjtluQ{fill:#fff9cc;stroke:var(--color-text-form-secondary-icb4vu,#687078);stroke-width:0.6px;}/*!sc*/
data-styled.g135[id="sc-kjEcyX"]{content:"bjtluQ,"}/*!sc*/
.fa-dGpR{fill:#fff9cc;stroke:var(--color-text-form-secondary-icb4vu,#687078);stroke-width:0.6px;}/*!sc*/
data-styled.g136[id="sc-cLFqLo"]{content:"fa-dGpR,"}/*!sc*/
.gSmyvZ{stroke:var(--color-border-control-default-zx2mvl,#687078);stroke-width:1px;fill:var(--color-background-container-content-v5h5oj,#ffffff);opacity:0.5;}/*!sc*/
.node &gt; .new-look-state-node.has-errors &gt; .bounding-box &gt; .sc-iJkHyd{stroke:var(--color-border-status-error-jb9vli,#d13212);fill:var(--color-background-status-error-hrmert,#fdf3f1);}/*!sc*/
.selected &gt; .node &gt; .new-look-state-node &gt; .bounding-box &gt; .sc-iJkHyd{stroke:var(--color-border-status-info-lqyesl,#0073bb);fill:var(--color-background-status-info-y7xysq,#f1faff);}/*!sc*/
.selected &gt; .node &gt; .new-look-state-node.has-errors &gt; .bounding-box &gt; .sc-iJkHyd{stroke:var(--color-border-status-error-jb9vli,#d13212);fill:#fde0da;}/*!sc*/
data-styled.g137[id="sc-iJkHyd"]{content:"gSmyvZ,"}/*!sc*/
.bWQpvc{opacity:1;}/*!sc*/
data-styled.g138[id="sc-grVGCS"]{content:"bWQpvc,"}/*!sc*/
</style>
<style>
.new-look-state-node &gt; rect:first-of-type {
  stroke: #687078;
  stroke-width: 1px;
  fill: #FFFFFF;
}

.new-look-state-node .error-icon circle {
 stroke-linejoin: round;
}

.new-look-state-node .error-icon circle, .new-look-state-node .error-icon path {
 stroke: var(--color-border-status-error-jb9vli, #d13212);
 fill: none;
 stroke-width: 2px;
}

.new-look-state-node.has-errors &gt; rect:first-of-type {
 stroke: var(--color-border-status-error-jb9vli, #d13212);
 fill: var(--color-background-status-error-hrmert, #fdf3f1);
}

.new-look-state-node .handle path {
  stroke: var(--color-border-dropdown-item-hover-jn30h1, #879596);
  stroke-width: 1px;
  fill: none;
}

.new-look-state-node {
  font-weight: 400;
  font-family: Amazon Ember, Arial, Roboto, Arial, sans-serif;
  text-shadow: none;
}

.new-look-state-node .line1 {
  fill: #687078;
  font-size: 12px;
}

.selected.node &gt; .new-look-state-node &gt; rect,
.selected.node &gt; .new-look-state-node &gt; .new-look-state-node &gt; rect,
.selected.node &gt; .new-look-state-node &gt; .bounding-box &gt; .new-look-state-node-sub &gt; rect
 {
  stroke: var(--color-border-status-info-lqyesl, #0073bb);
  fill: var(--color-background-status-info-y7xysq, #f1faff);
  stroke-width: 1px;
}

.new-look-state-node-sub .item-source.not-specified {
  height: 15px;
  color: #687078;
  font-family: "Amazon Ember";
  font-size: 12px;
  letter-spacing: 0;
  line-height: 16px;
  font-weight: 400;
}
.new-look-state-node-sub .item-source .item-source_name{
  font-weight: 600;
}
.new-look-state-node-sub .item-source.not-specified .item-source_name{
  font-weight: 400;
}

.new-look-state-node-sub .item-source.not-specified {
  font-style: italic;
}



.new-look-state-node-sub .item-source
.selected.node &gt; .new-look-state-node.has-errors &gt; rect,
.selected.node &gt; .new-look-state-node.has-errors &gt; .new-look-state-node &gt; rect,
{
 stroke: var(--color-border-status-error-jb9vli, #d13212);
 fill: #fde0da;
}

.new-look-graph .drag-source {
  opacity: 0.2;
}

.new-look-graph .edge, .new-look-graph path.starting-connection {
  stroke-width: 1px;
  stroke: var(--color-text-form-secondary-icb4vu, #687078);
  marker-end: url(#large-arrowhead);
}

.new-look-graph .edge-label {
  cursor: pointer;
}

.new-look-graph .edge-label rect {
  stroke-width: 1px;
  stroke: var(--color-border-control-default-zx2mvl, #687078);
  fill: var(--color-background-container-header-gnwbip, #fafafa);
}

.new-look-graph .edge-label.selected rect {
  stroke: var(--color-border-status-info-lqyesl, #0073bb);
  fill: var(--color-background-status-info-y7xysq, #f1faff);
  stroke-width: 0.6px;
}



.new-look-graph .edge-label .label {
  fill: var(--color-text-form-secondary-icb4vu, #687078);
  font-family: Amazon Ember, Arial, Roboto, Arial, sans-serif;
}

/* centering the shape text */
@-moz-document url-prefix() {
  .new-look-graph .shape + text,
  .new-look-graph .edge-label text {
    transform: translateY(3.5px);
  }
}

.new-look-graph .edge path {
  marker-end: url(#large-arrowhead) !important;
}

.new-look-graph .edge.selected path{
  stroke: var(--color-border-status-info-lqyesl, #0073bb);
  stroke-width: 1.1px;
}

.new-look-graph .edge.dragging-over path, .new-look-graph  g.dragging-over .starting-connection {
  stroke: #5C86FF;
  stroke-width: 2px;
}

.new-look-graph .edge.dragging-over path, .new-look-graph .dragging-over path.starting-connection {
  marker-end: url(#large-highlighted-arrowhead) !important;
}

.new-look-graph .edge.dragging-over .edge-label text {
  fill: #5C86FF;
}

#large-highlighted-arrowhead {
  fill: #5C86FF;
}

#large-highlighted-arrowhead path {
  stroke: none;
}

.new-look-graph .edge.drop-not-supported path, g.drop-not-supported .starting-connection {
  stroke: red;
}

.new-look-graph .edge.drop-not-supported .edge-label text {
  fill: red;
}

.new-look-graph .edge.drop-not-supported path {
  marker-end: url(#large-error-arrowhead) !important;
}

#large-error-arrowhead {
  fill: red;
}


.node.Placeholder.dragging-over rect {
  stroke: var(--color-border-status-info-lqyesl, #0073bb);
  fill: var(--color-background-status-info-y7xysq, #f1faff);
  stroke-width: 2px;
}

.node.Placeholder.dragging-over .label {
  fill: var(--color-text-status-info-ljzs7r, #0073bb);
}

g.Placeholder rect {
  stroke-dasharray: 5 4;
  stroke: var(--color-border-dropdown-item-hover-jn30h1, #879596);
  fill: var(--color-background-control-default-3975zi, #ffffff);
  stroke-width: 1px;
}

g.Placeholder .label {
  font-style: italic;
  fill: var(--color-text-input-placeholder-j38kg2, #687078);
}

.node.Placeholder.drop-not-supported rect {
  stroke: red;
}

.node.Placeholder.drop-not-supported .label {
  fill: red;
}
</style>
<style>.line2 { font-size: 14px }</style>
</svg>
<text x="-129.5" y="-83.5" class="line1">
<tspan class="item-source" xml:space="preserve" text-anchor="start">
<tspan>Item source</tspan>
<tspan class="item-source_name">
<tspan>: JSON Payload</tspan>
</tspan>
</tspan>
</text>
</g>
<g class="content" transform="translate(-194.5,-144.5)">
<g class="branch" transform="translate(40,124)">
<g transform="">
<g class="nodes">
<g class="node-container" transform="translate(154.5,24.5)">
<g class="sc-caXVBt jhpNPD node state Task" data-testid="graph-Delete the old staging RDS Instance" data-state-id="Delete the old staging RDS Instance" data-state-type="Task">
<g class="new-look-state-node ">
<rect x="-154.5" y="-24.5" width="309" height="49" rx="3" ry="3"/>
<g class="handle" transform="translate(-154.5,-24.5)">
<path d="M5,16 L5,34 M8,16 L8,34"/>
</g>
<g class="icon" transform="translate(-138.5,-24)">
<rect fill="var(--color-background-container-header-gnwbip, #fafafa)" x="0.0361026108" y="0.0181291967" width="48" height="48"/>
<line x1="47.5" y1="0.49122807" x2="47.5" y2="47.5" stroke="var(--color-text-home-header-secondary-bkwtrh, #d5dbdb)" stroke-linecap="square"/>
<line x1="0.5" y1="0.49122807" x2="0.5" y2="47.5" stroke="var(--color-text-home-header-secondary-bkwtrh, #d5dbdb)" stroke-linecap="square"/>
<use href="#icon-service-rds">
<title>RDS</title>
</use>
</g>
<g class="text-lines" transform="translate(-82.5,-24.5)">
<text transform="translate(0,17)" class="line1">
<tspan xml:space="preserve" text-anchor="start">RDS: DeleteDBInstance</tspan>
</text>
<text transform="translate(0,35.5)" class="line2 label">
<tspan xml:space="preserve" text-anchor="start">Delete the old staging RDS Instance</tspan>
</text>
</g>
</g>
</g>
</g>
<g class="node-container" transform="translate(154.5,92)">
<g>
<circle class="sc-cLFqLo fa-dGpR shape" r="8"/>
</g>
</g>
</g>
<g class="edges">
<g class="sc-hjriPb joWlhX edge">
<path id="state-Delete the old staging RDS Instance:end:normal" d="M154.5,49L154.5,51.916666666666664C154.5,54.833333333333336,154.5,60.666666666666664,154.5,66.5C154.5,72.33333333333333,154.5,78.16666666666667,154.5,81.08333333333333L154.5,84" marker-end="url(#arrowhead)" fill="none"/>
</g>
</g>
</g>
</g>
<g class="sc-hjriPb joWlhX">
<path id="Parallel deletion of old staging RDS Instances-Delete the old staging RDS Instance" class="path starting-connection" d="M194.5,69L194.5,73.58333333333333C194.5,78.16666666666667,194.5,87.33333333333333,194.5,91.91666666666667C194.5,96.5,194.5,96.5,194.5,101.08333333333333C194.5,105.66666666666667,194.5,114.83333333333333,194.5,119.41666666666667L194.5,124" fill="none"/>
</g>
</g>
</g>
<g class="new-look-state-node ">
<rect x="-184.5" y="-144.5" width="369" height="49" rx="3" ry="3"/>
<g class="handle" transform="translate(-184.5,-144.5)">
<path d="M5,16 L5,34 M8,16 L8,34"/>
</g>
<g class="icon" transform="translate(-168.5,-144)">
<rect fill="var(--color-background-container-header-gnwbip, #fafafa)" x="0.0361026108" y="0.0181291967" width="48" height="48"/>
<line x1="47.5" y1="0.49122807" x2="47.5" y2="47.5" stroke="var(--color-text-home-header-secondary-bkwtrh, #d5dbdb)" stroke-linecap="square"/>
<line x1="0.5" y1="0.49122807" x2="0.5" y2="47.5" stroke="var(--color-text-home-header-secondary-bkwtrh, #d5dbdb)" stroke-linecap="square"/>
<use href="#icon-flow-map"/>
</g>
<g class="text-lines" transform="translate(-112.5,-144.5)">
<text transform="translate(0,17)" class="line1">
<tspan xml:space="preserve" text-anchor="start">Map state</tspan>
</text>
<text transform="translate(0,35.5)" class="line2 label">
<tspan xml:space="preserve" text-anchor="start">Parallel deletion of old staging RDS Instances</tspan>
</text>
</g>
</g>
</g>
</g>
</g>
<g class="node-container" transform="translate(182.5,1284)">
<g class="sc-caXVBt jhpNPD node state Succeed" data-testid="graph-There is no old staging RDS Cluster to delete" data-state-id="There is no old staging RDS Cluster to delete" data-state-type="Succeed">
<g class="new-look-state-node ">
<rect x="-182.5" y="-24.5" width="365" height="49" rx="3" ry="3"/>
<g class="handle" transform="translate(-182.5,-24.5)">
<path d="M5,16 L5,34 M8,16 L8,34"/>
</g>
<g class="icon" transform="translate(-166.5,-24)">
<rect fill="var(--color-background-container-header-gnwbip, #fafafa)" x="0.0361026108" y="0.0181291967" width="48" height="48"/>
<line x1="47.5" y1="0.49122807" x2="47.5" y2="47.5" stroke="var(--color-text-home-header-secondary-bkwtrh, #d5dbdb)" stroke-linecap="square"/>
<line x1="0.5" y1="0.49122807" x2="0.5" y2="47.5" stroke="var(--color-text-home-header-secondary-bkwtrh, #d5dbdb)" stroke-linecap="square"/>
<use href="#icon-flow-succeed"/>
</g>
<g class="text-lines" transform="translate(-110.5,-24.5)">
<text transform="translate(0,17)" class="line1">
<tspan xml:space="preserve" text-anchor="start">Succeed state</tspan>
</text>
<text transform="translate(0,35.5)" class="line2 label">
<tspan xml:space="preserve" text-anchor="start">There is no old staging RDS Cluster to delete</tspan>
</text>
</g>
</g>
</g>
</g>
<g class="node-container" transform="translate(368.75,1365.5)">
<g>
<circle class="sc-kjEcyX bjtluQ shape" r="22"/>
<text class="sc-elYLMi hKSxMr label">
<tspan xml:space="preserve" text-anchor="middle" alignment-baseline="central">End</tspan>
</text>
</g>
</g>
<g class="node-container" transform="translate(555,1284)">
<g class="sc-caXVBt jhpNPD node state Task" data-testid="graph-Delete the old staging RDS Cluster" data-state-id="Delete the old staging RDS Cluster" data-state-type="Task">
<g class="new-look-state-node ">
<rect x="-150" y="-24.5" width="300" height="49" rx="3" ry="3"/>
<g class="handle" transform="translate(-150,-24.5)">
<path d="M5,16 L5,34 M8,16 L8,34"/>
</g>
<g class="icon" transform="translate(-134,-24)">
<rect fill="var(--color-background-container-header-gnwbip, #fafafa)" x="0.0361026108" y="0.0181291967" width="48" height="48"/>
<line x1="47.5" y1="0.49122807" x2="47.5" y2="47.5" stroke="var(--color-text-home-header-secondary-bkwtrh, #d5dbdb)" stroke-linecap="square"/>
<line x1="0.5" y1="0.49122807" x2="0.5" y2="47.5" stroke="var(--color-text-home-header-secondary-bkwtrh, #d5dbdb)" stroke-linecap="square"/>
<use href="#icon-service-rds">
<title>RDS</title>
</use>
</g>
<g class="text-lines" transform="translate(-78,-24.5)">
<text transform="translate(0,17)" class="line1">
<tspan xml:space="preserve" text-anchor="start">RDS: DeleteDBCluster</tspan>
</text>
<text transform="translate(0,35.5)" class="line2 label">
<tspan xml:space="preserve" text-anchor="start">Delete the old staging RDS Cluster</tspan>
</text>
</g>
</g>
</g>
</g>
</g>
<g class="edges">
<g class="sc-hjriPb joWlhX edge">
<path id="state-Retrieve the latest prod RDS Cluster snapshot:state-Restore the prod RDS Cluster snapshot into the staging RDS cluster:normal" d="M368.75,128L368.75,130.91666666666666C368.75,133.83333333333334,368.75,139.66666666666666,368.75,145.5C368.75,151.33333333333334,368.75,157.16666666666666,368.75,160.08333333333334L368.75,163" marker-end="url(#arrowhead)" fill="none"/>
</g>
<g class="sc-hjriPb joWlhX edge">
<path id="start:state-Retrieve the latest prod RDS Cluster snapshot" d="M368.75,44L368.75,46.916666666666664C368.75,49.833333333333336,368.75,55.666666666666664,368.75,61.5C368.75,67.33333333333333,368.75,73.16666666666667,368.75,76.08333333333333L368.75,79" marker-end="url(#arrowhead)" fill="none"/>
</g>
<g class="sc-hjriPb joWlhX edge">
<path id="state-Restore the prod RDS Cluster snapshot into the staging RDS cluster:state-Wait 30 min until a staging RDS Cluster reaches the state closer to Available:normal" d="M368.75,212L368.75,214.91666666666666C368.75,217.83333333333334,368.75,223.66666666666666,368.75,229.5C368.75,235.33333333333334,368.75,241.16666666666666,368.75,244.08333333333334L368.75,247" marker-end="url(#arrowhead)" fill="none"/>
</g>
<g class="sc-hjriPb joWlhX edge">
<path id="state-Wait 30 min until a staging RDS Cluster reaches the state closer to Available:state-Wait until a staging RDS Cluster is Available:normal" d="M368.75,296L368.75,298.9166666666667C368.75,301.8333333333333,368.75,307.6666666666667,368.75,313.5C368.75,319.3333333333333,368.75,325.1666666666667,368.75,328.0833333333333L368.75,331" marker-end="url(#arrowhead)" fill="none"/>
</g>
<g class="sc-hjriPb joWlhX edge">
<path id="state-Wait until a staging RDS Cluster is Available:state-Create a staging RDS Instance:normal" d="M368.75,380L368.75,382.9166666666667C368.75,385.8333333333333,368.75,391.6666666666667,368.75,397.5C368.75,403.3333333333333,368.75,409.1666666666667,368.75,412.0833333333333L368.75,415" marker-end="url(#arrowhead)" fill="none"/>
</g>
<g class="sc-hjriPb joWlhX edge">
<path id="state-Create a staging RDS Instance:state-Wait 9 min until a staging RDS Instance reaches the state closer to Available:normal" d="M368.75,464L368.75,466.9166666666667C368.75,469.8333333333333,368.75,475.6666666666667,368.75,481.5C368.75,487.3333333333333,368.75,493.1666666666667,368.75,496.0833333333333L368.75,499" marker-end="url(#arrowhead)" fill="none"/>
</g>
<g class="sc-hjriPb joWlhX edge">
<path id="state-Wait 9 min until a staging RDS Instance reaches the state closer to Available:state-Wait until a staging RDS Instance is Available:normal" d="M368.75,548L368.75,550.9166666666666C368.75,553.8333333333334,368.75,559.6666666666666,368.75,565.5C368.75,571.3333333333334,368.75,577.1666666666666,368.75,580.0833333333334L368.75,583" marker-end="url(#arrowhead)" fill="none"/>
</g>
<g class="sc-hjriPb joWlhX edge">
<path id="state-Wait until a staging RDS Instance is Available:state-Update and deploy the staging application environment:normal" d="M368.75,632L368.75,634.9166666666666C368.75,637.8333333333334,368.75,643.6666666666666,368.75,649.5C368.75,655.3333333333334,368.75,661.1666666666666,368.75,664.0833333333334L368.75,667" marker-end="url(#arrowhead)" fill="none"/>
</g>
<g class="sc-hjriPb joWlhX edge">
<path id="state-Update and deploy the staging application environment:state-List old staging RDS resources to delete:normal" d="M368.75,716L368.75,718.9166666666666C368.75,721.8333333333334,368.75,727.6666666666666,368.75,733.5C368.75,739.3333333333334,368.75,745.1666666666666,368.75,748.0833333333334L368.75,751" marker-end="url(#arrowhead)" fill="none"/>
</g>
<g class="sc-hjriPb joWlhX edge">
<path id="state-List old staging RDS resources to delete:state-Check if the old staging RDS Cluster exists:normal" d="M368.75,800L368.75,802.9166666666666C368.75,805.8333333333334,368.75,811.6666666666666,368.75,817.5C368.75,823.3333333333334,368.75,829.1666666666666,368.75,832.0833333333334L368.75,835" marker-end="url(#arrowhead)" fill="none"/>
</g>
<g class="sc-hjriPb joWlhX edge">
<path id="state-Check if the old staging RDS Cluster exists:state-Parallel deletion of old staging RDS Instances:choiceRule:0" d="M459.55845771144277,884L475.4653814262023,888.2916666666666C491.3723051409618,892.5833333333334,523.1861525704809,901.1666666666666,539.0930762852405,909.75C555,918.3333333333334,555,926.9166666666666,555,931.2083333333334L555,935.5" marker-end="url(#arrowhead)" fill="none"/>
<g data-testid="graph-Check if the old staging RDS Cluster exists-0" class="edge-label" transform="translate(539.0930762852405,909.75)">
<rect x="-102" y="-8.25" width="204" height="16.5" class="sc-gUAEMC eEdiSR"/>
<text class="sc-fWjsSh kAiHmX label">
<tspan xml:space="preserve" text-anchor="middle" alignment-baseline="central">$.OldStagingRDSResources.DBClusterIde…</tspan>
<title>$.OldStagingRDSResources.DBClusterIdentifier is present</title>
</text>
</g>
</g>
<g class="sc-hjriPb joWlhX edge">
<path id="state-Check if the old staging RDS Cluster exists:state-There is no old staging RDS Cluster to delete:choiceDefault" d="M277.94154228855723,884L262.0346185737977,888.2916666666666C246.12769485903814,892.5833333333334,214.3138474295191,901.1666666666666,198.40692371475953,933.8333333333334C182.5,966.5,182.5,1023.25,182.5,1078.625C182.5,1134,182.5,1188,182.5,1217.9166666666667C182.5,1247.8333333333333,182.5,1253.6666666666667,182.5,1256.5833333333333L182.5,1259.5" marker-end="url(#arrowhead)" fill="none"/>
<g data-testid="graph-Check if the old staging RDS Cluster exists-Default" class="edge-label" transform="translate(198.40692371475953,933.8333333333334)">
<rect x="-22" y="-8.25" width="44" height="16.5" class="sc-gUAEMC eEdiSR"/>
<text class="sc-fWjsSh kAiHmX label">
<tspan xml:space="preserve" text-anchor="middle" alignment-baseline="central">Default</tspan>
<title>Default</title>
</text>
</g>
</g>
<g class="sc-hjriPb joWlhX edge">
<path id="state-There is no old staging RDS Cluster to delete:end:normal" d="M182.5,1308.5L182.5,1311.4166666666667C182.5,1314.3333333333333,182.5,1320.1666666666667,209.95477859529353,1328.9059575186438C237.40955719058707,1337.6452483706212,292.3191143811741,1349.2904967412424,319.7738929764676,1355.113120926553L347.22867157176114,1360.9357451118635" marker-end="url(#arrowhead)" fill="none"/>
</g>
<g class="sc-hjriPb joWlhX edge">
<path id="state-Parallel deletion of old staging RDS Instances:state-Delete the old staging RDS Cluster:normal" d="M555,1224.5L555,1227.4166666666667C555,1230.3333333333333,555,1236.1666666666667,555,1242C555,1247.8333333333333,555,1253.6666666666667,555,1256.5833333333333L555,1259.5" marker-end="url(#arrowhead)" fill="none"/>
</g>
<g class="sc-hjriPb joWlhX edge">
<path id="state-Delete the old staging RDS Cluster:end:normal" d="M555,1308.5L555,1311.4166666666667C555,1314.3333333333333,555,1320.1666666666667,527.5452214047065,1328.9059575186438C500.09044280941293,1337.6452483706212,445.18088561882587,1349.2904967412424,417.7261070235324,1355.113120926553L390.27132842823886,1360.9357451118635" marker-end="url(#arrowhead)" fill="none"/>
</g>
</g>
<defs>
<marker id="arrowhead" markerWidth="8" markerHeight="6" refX="7" refY="3" orient="auto" class="sc-jtcaXd bhYJdp">
<polygon points="0 0, 8 3, 0 6"/>
</marker>
<marker id="highlighted-arrowhead" markerWidth="6" markerHeight="4" refX="5" refY="2" orient="auto" class="sc-jtcaXd bhYJdp">
<polygon points="0 0, 6 2, 0 4"/>
</marker>
<marker id="error-arrowhead" markerWidth="6" markerHeight="4" refX="5" refY="2" orient="auto" class="sc-jtcaXd bhYJdp">
<polygon points="0 0, 6 2, 0 4"/>
</marker>
<marker id="large-arrowhead" markerWidth="10" markerHeight="8" refX="9" refY="4" orient="auto" class="sc-jtcaXd bhYJdp">
<polygon points="0 0, 10 4, 0 8"/>
</marker>
<marker id="large-highlighted-arrowhead" markerWidth="5.5" markerHeight="4" refX="4.5" refY="2" orient="auto" class="sc-jtcaXd bhYJdp">
<polygon points="0 0, 5.5 2, 0 4"/>
</marker>
<marker id="large-error-arrowhead" markerWidth="10" markerHeight="8" refX="9" refY="4" orient="auto" class="sc-jtcaXd bhYJdp">
<polygon points="0 0, 10 4, 0 8"/>
</marker>
<linearGradient x1="0%" y1="100%" x2="100%" y2="0%" id="gradient-orange">
<stop stop-color="#C8511B" offset="0%"/>
<stop stop-color="#FF9900" offset="100%"/>
</linearGradient>
<linearGradient x1="0%" y1="100%" x2="100%" y2="0%" id="gradient-turquoise">
<stop stop-color="#055F4E" offset="0%"/>
<stop stop-color="#56C0A7" offset="100%"/>
</linearGradient>
<linearGradient x1="0%" y1="100%" x2="100%" y2="0%" id="gradient-blue">
<stop stop-color="#2E27AD" offset="0%"/>
<stop stop-color="#527FFF" offset="100%"/>
</linearGradient>
<linearGradient x1="0%" y1="100%" x2="100%" y2="0%" id="gradient-pink">
<stop stop-color="#B0084D" offset="0%"/>
<stop stop-color="#FF4F8B" offset="100%"/>
</linearGradient>
<linearGradient x1="0%" y1="100%" x2="100%" y2="0%" id="gradient-red">
<stop stop-color="#BD0816" offset="0%"/>
<stop stop-color="#FF5252" offset="100%"/>
</linearGradient>
<linearGradient x1="0%" y1="100%" x2="100%" y2="0%" id="gradient-green">
<stop stop-color="#1B660F" offset="0%"/>
<stop stop-color="#6CAE3E" offset="100%"/>
</linearGradient>
<linearGradient x1="0%" y1="100%" x2="100%" y2="0%" id="gradient-purple">
<stop stop-color="#4D27A8" offset="0%"/>
<stop stop-color="#A166FF" offset="100%"/>
</linearGradient>
<linearGradient x1="0%" y1="100%" x2="100%" y2="0%" id="gradient-grey">
<stop stop-color="#DCDCDC" offset="0%"/>
<stop stop-color="#F6F5F7" offset="100%"/>
</linearGradient>,<linearGradient x1="0%" y1="100%" x2="100%" y2="0%" id="gradient-ag">
<stop stop-color="#BC1356" offset="0%"/>
<stop stop-color="#F34482" offset="100%"/>
</linearGradient>
<linearGradient x1="0%" y1="100%" x2="100%" y2="0%" id="gradient-athena">
<stop stop-color="#5930B5" offset="0%"/>
<stop stop-color="#945DF2" offset="100%"/>
</linearGradient>
<linearGradient x1="0%" y1="100%" x2="100%" y2="0%" id="gradient-emr">
<stop stop-color="#5930B5" offset="0%"/>
<stop stop-color="#945DF2" offset="100%"/>
</linearGradient>
<linearGradient x1="0%" y1="100%" x2="100%" y2="0%" id="gradient-glue">
<stop stop-color="#5930B5" offset="0%"/>
<stop stop-color="#945DF2" offset="100%"/>
</linearGradient>
<linearGradient x1="0%" y1="100%" x2="100%" y2="0%" id="gradient-sns">
<stop stop-color="#BC1356" offset="0%"/>
<stop stop-color="#F34482" offset="100%"/>
</linearGradient>
<linearGradient x1="0%" y1="100%" x2="100%" y2="0%" id="gradient-states">
<stop stop-color="#BC1356" offset="0%"/>
<stop stop-color="#F34482" offset="100%"/>
</linearGradient>
<linearGradient x1="0%" y1="100%" x2="100%" y2="0%" id="gradient-generic">
<stop stop-color="#ccc" offset="0%"/>
<stop stop-color="#ddd" offset="100%"/>
</linearGradient>
<g stroke="none" stroke-width="1" fill="none" fill-rule="evenodd" id="icon-flow-wait">
<path d="M26.75,8.85825893 L26.75,10.3582589 L25,10.3582589 L25.0010332,13.2887186 C27.2395643,13.4625704 29.3159269,14.2145278 31.0809903,15.3954598 L32.3188424,13.6912711 L34.7458934,15.4546269 L33.3682881,17.3513419 C35.4674483,19.6240431 36.75,22.6622436 36.75,26 C36.75,33.0416306 31.0416306,38.75 24,38.75 C16.9583694,38.75 11.25,33.0416306 11.25,26 C11.25,22.7657627 12.4542298,19.8127884 14.4387685,17.5649977 L12.9047966,15.4546269 L15.3318476,13.6912711 L16.6858812,15.555197 C18.2387522,14.4657629 20.0456704,13.7138336 22.0001068,13.4059384 L22,10.3582589 L20.25,10.3582589 L20.25,8.85825893 L26.75,8.85825893 Z M24,14.75 C17.7867966,14.75 12.75,19.7867966 12.75,26 C12.75,32.2132034 17.7867966,37.25 24,37.25 C30.2132034,37.25 35.25,32.2132034 35.25,26 C35.25,19.7867966 30.2132034,14.75 24,14.75 Z M24.4666648,19.3452148 L24.466,26.499 L30.9387207,26.4993034 L30.9387207,27.9993034 L23.7166648,27.9993034 C23.336969,27.9993034 23.0231738,27.7171495 22.9735114,27.3510739 L22.9666648,27.2493034 L22.9666648,19.3452148 L24.4666648,19.3452148 Z" fill="#0073BB" fill-rule="nonzero"/>
</g>
<g stroke="none" stroke-width="1" fill="none" fill-rule="evenodd" id="icon-flow-map">
<g transform="translate(7.250000, 12.250000)" fill="#0073BB" fill-rule="nonzero">
<path d="M18.75,6.75 C19.3022847,6.75 19.75,7.19771525 19.75,7.75 L19.75,10.75 C19.75,11.3022847 19.3022847,11.75 18.75,11.75 L17,11.75 L17,14.75 L18.75,14.75 C19.3022847,14.75 19.75,15.1977153 19.75,15.75 L19.75,18.75 C19.75,19.3022847 19.3022847,19.75 18.75,19.75 L13.75,19.75 C13.1977153,19.75 12.75,19.3022847 12.75,18.75 L12.75,15.75 C12.75,15.1977153 13.1977153,14.75 13.75,14.75 L15.5,14.75 L15.5,11.75 L13.75,11.75 C13.1977153,11.75 12.75,11.3022847 12.75,10.75 L12.75,7.75 C12.75,7.19771525 13.1977153,6.75 13.75,6.75 L18.75,6.75 Z M18.25,16.25 L14.25,16.25 L14.25,18.25 L18.25,18.25 L18.25,16.25 Z M18.25,8.25 L14.25,8.25 L14.25,10.25 L18.25,10.25 L18.25,8.25 Z"/>
<path d="M4.36774058,12.9781551 L4.25581637,12.9873783 L4.25581637,12.9873783 L4.16664164,12.9827819 L4.16664164,12.9827819 L4.09909543,12.9721471 L4.09909543,12.9721471 L4.01772926,12.9506961 L4.01772926,12.9506961 L3.9143938,12.9083506 L3.9143938,12.9083506 L3.84086306,12.8661585 L3.84086306,12.8661585 L3.80378835,12.840349 L3.80378835,12.840349 L3.71966991,12.7677308 L0.219669914,9.26773081 C-0.0732233047,8.97483759 -0.0732233047,8.49996385 0.219669914,8.20707064 C0.485936477,7.94080407 0.902600159,7.91659802 1.19621165,8.13445248 L1.28033009,8.20707064 L3.5,10.427 L3.5,5.75 C3.5,2.64821472 5.95601719,0.120062989 9.02944429,0.00415208345 L9.25,-4.97379915e-14 L24.25,-4.97379915e-14 C27.3101239,-4.97379915e-14 29.8183331,2.39279152 29.9905671,5.41800288 L29.9990775,5.65628924 L30,7.75 C30,8.16421356 29.6642136,8.5 29.25,8.5 C28.8357864,8.5 28.5,8.16421356 28.5,7.75 L28.4992379,5.66855413 C28.4572345,3.42607261 26.6797069,1.6129038 24.4594105,1.50507399 L24.25,1.5 L9.25,1.5 C6.97182541,1.5 5.11231326,3.29250701 5.00490093,5.54408366 L5,5.75 L5,10.426 L7.21966991,8.20707064 L7.30378835,8.13445248 C7.59739984,7.91659802 8.01406352,7.94080407 8.28033009,8.20707064 C8.54659665,8.4733372 8.5708027,8.89000088 8.35294824,9.18361237 L8.28033009,9.26773081 L4.78033009,12.7677308 C4.74270234,12.8053586 4.70207113,12.8381523 4.65920816,12.866112 L4.58539483,12.9084563 L4.58539483,12.9084563 L4.50825575,12.9417254 L4.50825575,12.9417254 L4.44163507,12.9626313 L4.44163507,12.9626313 L4.36774058,12.9781551 L4.36774058,12.9781551 Z"/>
<path d="M29.1567308,12.467303 L29.2441836,12.4615381 L29.2441836,12.4615381 L29.3612017,12.4697569 L29.3612017,12.4697569 L29.4099419,12.4786795 L29.4099419,12.4786795 L29.4761141,12.4962504 L29.4761141,12.4962504 L29.5349097,12.5175276 L29.5349097,12.5175276 L29.6051875,12.5507277 L29.6051875,12.5507277 L29.6962117,12.6085674 L29.6962117,12.6085674 L29.7803301,12.6811856 L33.2803301,16.1811856 C33.5732233,16.4740788 33.5732233,16.9489525 33.2803301,17.2418457 C33.0140635,17.5081123 32.5973998,17.5323184 32.3037883,17.3144639 L32.2196699,17.2418457 L30,15.0225381 L30,19.75 C30,22.8517853 27.5439828,25.379937 24.4705557,25.4958479 L24.25,25.5 L9.25,25.5 C6.22364937,25.5 3.73212863,23.1580245 3.51530256,20.1724864 L3.50299507,19.9226196 L3.5,17.75 C3.5,17.3357864 3.83578644,17 4.25,17 C4.62969577,17 4.94349096,17.2821539 4.99315338,17.6482294 L5,17.75 L5.00247606,19.8966995 C5.07738217,22.1119658 6.84520232,23.8893416 9.04275865,23.9950272 L9.25,24 L24.25,24 C26.5281746,24 28.3876867,22.207493 28.4950991,19.9559163 L28.5,19.75 L28.5,15.0215381 L26.2803301,17.2418457 L26.1962117,17.3144639 C25.9026002,17.5323184 25.4859365,17.5081123 25.2196699,17.2418457 C24.9534034,16.9755792 24.9291973,16.5589155 25.1470518,16.265304 L25.2196699,16.1811856 L28.7196699,12.6811856 L28.7969693,12.6136874 L28.7969693,12.6136874 L28.8948226,12.5507257 L28.8948226,12.5507257 L28.96499,12.5175687 L28.96499,12.5175687 L29.0426978,12.4905912 L29.0426978,12.4905912 L29.0900352,12.4786762 L29.0900352,12.4786762 L29.1567308,12.467303 L29.1567308,12.467303 Z"/>
</g>
</g>
<g stroke="none" stroke-width="1" fill="none" fill-rule="evenodd" id="icon-flow-choice">
<g transform="translate(9.252020, 8.729185)" fill="#0073BB" fill-rule="nonzero">
<path d="M13.7176503,0.219669914 C13.9839168,-0.0465966484 14.4005805,-0.0708026996 14.694192,0.147051761 L14.7783104,0.219669914 L26.7991257,12.2404852 C27.0653923,12.5067518 27.0895983,12.9234154 26.8717439,13.2170269 L26.7991257,13.3011454 L19.848,20.251 L27.063,27.58 L27.0635443,24.4725437 C27.0635443,24.0583302 27.3993308,23.7225437 27.8135443,23.7225437 C28.1901021,23.7225437 28.5018441,24.0000532 28.5554124,24.3617142 L28.5635443,24.4725437 L28.5635443,29.4222912 C28.5635443,29.4735748 28.5583971,29.5236562 28.5485912,29.5720469 L28.5290567,29.6477745 L28.4912259,29.7440224 L28.4674556,29.7898473 L28.4399848,29.8348433 L28.3922808,29.8993609 L28.3266417,29.9693147 L28.2903734,30.0012261 L28.2103598,30.0588356 L28.1372883,30.0990133 L28.0408973,30.1372113 L27.9243738,30.1641593 C27.8841362,30.1698129 27.8491297,30.1722912 27.8135443,30.1722912 L22.8637969,30.1722912 C22.4495833,30.1722912 22.1137969,29.8365048 22.1137969,29.4222912 C22.1137969,29.0457334 22.3913063,28.7339914 22.7529674,28.6804231 L22.8637969,28.6722912 L26.032,28.672 L18.787,21.312 L14.7783104,25.3219606 C14.5120439,25.5882272 14.0953802,25.6124333 13.8017687,25.3945788 L13.7176503,25.3219606 L9.63,21.234 L2.386,28.671 L5.69974747,28.6722912 L5.81057697,28.6804231 C6.17223802,28.7339914 6.44974747,29.0457334 6.44974747,29.4222912 C6.44974747,29.801987 6.16759359,30.1157822 5.80151803,30.1654446 L5.69974747,30.1722912 L0.75,30.1722912 L0.645175107,30.1650238 L0.571316134,30.150876 L0.491748953,30.1266437 L0.399838514,30.0857012 L0.323957521,30.0396165 L0.243169757,29.975129 L0.170912131,29.8989347 L0.109961584,29.8134582 L0.0656949991,29.7297074 L0.0297396696,29.6320944 L0.0076057584,29.5294944 L6.67910172e-13,29.4222912 L6.67910172e-13,24.4725437 L0.00813192572,24.3617142 C0.0617002376,24.0000532 0.373442216,23.7225437 0.75,23.7225437 C1.12969577,23.7225437 1.44349096,24.0046976 1.49315338,24.3707732 L1.5,24.4725437 L1.499,27.433 L8.569,20.174 L1.69683498,13.3011454 C1.43056842,13.0348788 1.40636237,12.6182151 1.62421683,12.3246036 L1.69683498,12.2404852 L13.7176503,0.219669914 Z M14.3527697,23.728356 L25.2081355,12.7708153 L14.2479803,1.81066017 L3.28782524,12.7708153 L9.616,19.099 L14.3527697,23.728356 Z"/>
<path d="M15.2319803,14.0468153 L15.2319803,13.2668153 C16.0033137,12.8508153 16.5579803,12.4218153 16.8959803,11.9798153 C17.2339803,11.5378153 17.4029803,11.0178153 17.4029803,10.4198153 C17.4029803,9.65714861 17.151647,9.06131528 16.6489803,8.63231528 C16.1463137,8.20331528 15.448647,7.98881528 14.5559803,7.98881528 C13.6979803,7.98881528 12.874647,8.19248195 12.0859803,8.59981528 L12.0859803,8.59981528 L12.0859803,10.3288153 C12.8313137,9.98214861 13.4943137,9.80881528 14.0749803,9.80881528 C14.395647,9.80881528 14.6404803,9.87814861 14.8094803,10.0168153 C14.9784803,10.1554819 15.0629803,10.3591486 15.0629803,10.6278153 C15.0629803,10.9138153 14.9763137,11.1651486 14.8029803,11.3818153 C14.629647,11.5984819 14.343647,11.8151486 13.9449803,12.0318153 L13.9449803,12.0318153 L13.1909803,12.4348153 L13.3339803,14.0468153 L15.2319803,14.0468153 Z M14.3089803,17.4398153 C14.7249803,17.4398153 15.0608137,17.3141486 15.3164803,17.0628153 C15.572147,16.8114819 15.6999803,16.4821486 15.6999803,16.0748153 C15.6999803,15.6674819 15.572147,15.3381486 15.3164803,15.0868153 C15.0608137,14.8354819 14.7249803,14.7098153 14.3089803,14.7098153 C13.8929803,14.7098153 13.557147,14.8354819 13.3014803,15.0868153 C13.0458137,15.3381486 12.9179803,15.6674819 12.9179803,16.0748153 C12.9179803,16.4821486 13.0458137,16.8114819 13.3014803,17.0628153 C13.557147,17.3141486 13.8929803,17.4398153 14.3089803,17.4398153 Z"/>
</g>
</g>
<g stroke="none" stroke-width="1" fill="none" fill-rule="evenodd" id="icon-flow-succeed">
<g transform="translate(11.250000, 12.250000)" fill="#2AB512" fill-rule="nonzero">
<path d="M12.75,0 C5.70836944,0 0,5.70836944 0,12.75 C0,19.7916306 5.70836944,25.5 12.75,25.5 C19.7916306,25.5 25.5,19.7916306 25.5,12.75 C25.5,5.70836944 19.7916306,0 12.75,0 Z M12.75,1.5 C18.9632034,1.5 24,6.53679656 24,12.75 C24,18.9632034 18.9632034,24 12.75,24 C6.53679656,24 1.5,18.9632034 1.5,12.75 C1.5,6.53679656 6.53679656,1.5 12.75,1.5 Z"/>
<path d="M17.482151,9.3912361 C17.7750442,9.09834288 18.2499179,9.09834288 18.5428111,9.3912361 C18.8090777,9.65750266 18.8332838,10.0741663 18.6154293,10.3677778 L18.5428111,10.4518963 L11.1581958,17.8365117 C10.9013427,18.0933647 10.5030038,18.1258243 10.2104294,17.9293959 L10.1171609,17.8554362 L6.98253225,14.9408143 C6.67918728,14.6587599 6.66192789,14.1841999 6.94398232,13.8808549 C7.20039544,13.6050868 7.61590405,13.565753 7.91723953,13.7727921 L8.0039417,13.842305 L10.608,16.264 L17.482151,9.3912361 Z"/>
</g>
</g>
<g stroke="none" stroke-width="1" fill="none" fill-rule="evenodd" id="icon-service-lam">
<polygon fill="url(#gradient-orange)" fill-rule="nonzero" points="0 0 48 0 48 48 0 48"/>
<g transform="translate(11, 10)" fill="#FFFFFF">
<path d="M26.5889213,27.8937088 L19.6925948,27.8937088 C19.4772752,27.8931074 19.2813916,27.7706914 19.1888047,27.578869 L9.43766764,7.45673404 L5.31218659,7.45673404 C5.00303594,7.45673404 4.75241983,7.20943823 4.75241983,6.90438337 L4.75241983,0.828526005 C4.75241983,0.523471153 5.00303594,0.276175335 5.31218659,0.276175335 L13.9325948,0.276175335 C14.1479143,0.276776788 14.3437979,0.399192787 14.4363848,0.591015217 L24.1427405,20.7131501 L26.5889213,20.7131501 C26.8980719,20.7131501 27.148688,20.9604459 27.148688,21.2655008 L27.148688,27.3413582 C27.148688,27.646413 26.8980719,27.8937088 26.5889213,27.8937088 Z M20.0452478,26.7890075 L26.0291545,26.7890075 L26.0291545,21.8178515 L23.7900875,21.8178515 C23.5747679,21.81725 23.3788843,21.694834 23.2862974,21.5030116 L13.5799417,1.38087667 L5.87755102,1.38087667 L5.87755102,6.3520327 L9.79591837,6.3520327 C10.0112379,6.35263416 10.2071215,6.47505016 10.2997085,6.66687259 L20.0452478,26.7890075 Z"/>
<path d="M8.10542274,27.8937099 L0.82845481,27.8937099 C0.635054571,27.8940907 0.455155006,27.7959347 0.352653061,27.634104 C0.243858391,27.4681848 0.233185428,27.2575536 0.324664723,27.0817533 L7.93749271,11.3894708 C8.03007964,11.1976484 8.22596323,11.0752324 8.4412828,11.0746298 L8.4412828,11.0746298 C8.65533487,11.0742082 8.85089022,11.1942751 8.94507289,11.3839473 L12.5891545,18.7799228 C12.6634688,18.931712 12.6634688,19.1086786 12.5891545,19.2604679 L8.6148105,27.5457279 C8.53147526,27.7523199 8.33072312,27.8894609 8.10542274,27.8937099 L8.10542274,27.8937099 Z M1.72408163,26.7890075 L7.75276968,26.7890075 L11.4640233,19.0560981 L8.44688047,12.8973881 L1.72408163,26.7890075 Z"/>
</g>
</g>
<g stroke="none" stroke-width="1" fill="none" fill-rule="evenodd" id="icon-service-rds">
<polygon fill="url(#gradient-blue)" fill-rule="nonzero" points="0 0 48 0 48 48 0 48"/>
<g transform="translate(8 8) scale(0.032)">
<path d="M106.7 62.5L240.8 196.6 196.6 240.9 62.5 106.7 62.5 218.8 0 218.8 0 31.3C0 14 14 0 31.3 0L218.8 0 218.8 62.5 106.7 62.5ZM240.8 803.4L106.7 937.5 218.8 937.5 218.8 1000 31.3 1000C14 1000 0 986 0 968.8L0 781.3 62.5 781.3 62.5 893.3 196.6 759.1 240.8 803.4ZM62.5 500C62.5 546.9 122.9 596.4 219.9 629.3L199.9 688.5C72.9 645.5 0 576.7 0 500 0 423.3 72.9 354.5 199.9 311.5L219.9 370.7C122.9 403.6 62.5 453.1 62.5 500L62.5 500ZM937.5 781.3L1000 781.3 1000 968.8C1000 986 986 1000 968.8 1000L781.3 1000 781.3 937.5 893.3 937.5 759.1 803.4 803.3 759.1 937.5 893.3 937.5 781.3ZM1000 31.3L1000 218.8 937.5 218.8 937.5 106.7 803.3 240.9 759.1 196.6 893.3 62.5 781.3 62.5 781.3 0 968.8 0C986 0 1000 14 1000 31.3L1000 31.3ZM1000 500C1000 576.7 927.1 645.5 800.1 688.5L780 629.3C877.1 596.4 937.5 546.9 937.5 500 937.5 453.1 877.1 403.6 780 370.7L800.1 311.5C927.1 354.5 1000 423.3 1000 500L1000 500ZM500 712.6C425.6 712.6 380.4 694 375 689.5L375 415.7C410.3 430.4 455.9 437.5 500 437.5 544.2 437.5 589.9 430.4 625.2 415.6L626.3 684.5C619.6 694 574.4 712.6 500 712.6L500 712.6ZM500 312.5C573.4 312.5 616.1 333.5 624.2 343.8 616.1 354 573.4 375 500 375 423.2 375 380 352 375 345.7L375 345.1C380 335.5 423.2 312.5 500 312.5L500 312.5ZM500 250C409.7 250 312.5 279.3 312.5 343.8L312.5 689.5C312.5 748.7 406.7 775.1 500 775.1 593.3 775.1 687.5 748.7 687.5 689.5L687.5 343.8C687.5 279.3 590.3 250 500 250L500 250Z" fill="#FFFFFF"/>
</g>
</g>
</defs>
</g>
</svg>